<?xml version="1.0" encoding="utf-8"?>
<!-- Generator: Adobe Illustrator 19.0.0, SVG Export Plug-In . SVG Version: 6.00 Build 0)  -->
<svg version="1.1" id="Layer_1" xmlns="http://www.w3.org/2000/svg" xmlns:xlink="http://www.w3.org/1999/xlink" x="0px" y="0px"
	 viewBox="0 0 395.1 389.9" style="enable-background:new 0 0 395.1 389.9;" xml:space="preserve">
<style type="text/css">
	.st0{fill:url(#SVGID_1_);}
	.st1{fill:url(#SVGID_2_);}
	.st2{fill:url(#SVGID_3_);}
</style>
<g>
	<g>
	</g>
	<g>
		<linearGradient id="SVGID_1_" gradientUnits="userSpaceOnUse" x1="186.001" y1="260.2842" x2="186.001" y2="2.128218e-010">
			<stop  offset="0" style="stop-color:#393997"/>
			<stop  offset="1" style="stop-color:#BB2B4E"/>
		</linearGradient>
		<path class="st0" d="M271.9,203.4c-2-12.4-0.3-38.9-0.3-38.9s3.9,20.9,11.7,23.9c12.5-19.1,19.8-42,19.8-66.6
			C303.2,54.6,248.6,0,181.3,0c-17.3,0-33.8,3.6-48.8,10.2c8.5-2.4,17.5-3.7,26.8-3.7c55,0,99.6,44.6,99.6,99.6
			c0,55-44.6,99.6-99.6,99.6c-53.4,0-97-42-99.5-94.8c-0.3,3.6-0.5,7.3-0.5,11c0,67.3,54.6,121.9,121.9,121.9
			c23.5,0,45.4-6.6,64-18.1c9.5,12.8,28.9,29.5,67.4,34.6C283.5,238.5,274.3,217.8,271.9,203.4z"/>
		<linearGradient id="SVGID_2_" gradientUnits="userSpaceOnUse" x1="156.7563" y1="184.2783" x2="156.7563" y2="22.7354">
			<stop  offset="0" style="stop-color:#393997"/>
			<stop  offset="1" style="stop-color:#BB2B4E"/>
		</linearGradient>
		<path class="st1" d="M91.3,115.7c0-42.9,34.8-77.6,77.6-77.6c29.7,0,55.5,16.7,68.6,41.2c-11-32.9-42.1-56.6-78.6-56.6
			c-7.7,0-15.2,1.1-22.3,3C101.6,35.5,76,67.6,76,105.6c0,1.3,0,2.7,0.1,4c1.7,34.8,24.8,64,56.5,74.6
			C108,171.2,91.3,145.4,91.3,115.7z"/>
	</g>
</g>
<linearGradient id="SVGID_3_" gradientUnits="userSpaceOnUse" x1="150.56" y1="122.2123" x2="223.9331" y2="122.2123">
	<stop  offset="0" style="stop-color:#393997"/>
	<stop  offset="1" style="stop-color:#BB2B4E"/>
</linearGradient>
<path class="st2" d="M222.9,120.3l-68.6-47.3c-0.7-0.5-1.7-0.6-2.4-0.1c-0.8,0.4-1.3,1.2-1.3,2.1v94.7c0,0.9,0.5,1.7,1.3,2.1
	c0.3,0.2,0.7,0.3,1.1,0.3c0.5,0,0.9-0.1,1.3-0.4l68.6-47.3c0.6-0.4,1-1.2,1-1.9S223.5,120.7,222.9,120.3z"/>
<g>
	<path d="M34.2,283.5h6.3l9.6,24.2l9.7-24.2h6.4l-11.9,29.1l13.1,30.8l24.7-60.4h7.3l-28.9,68.2h-6l-14.3-33.7l-14.4,33.7H30
		L1.2,283.1h7.2l24.8,60.4l13-30.8L34.2,283.5z"/>
	<path d="M123.2,352.2c-3.7,0-7-0.7-10-2.1c-3-1.4-5.7-3.3-7.9-5.7c-2.2-2.4-4-5.2-5.2-8.3c-1.2-3.1-1.9-6.5-1.9-10.1
		c0-3.5,0.6-6.8,1.9-9.9c1.2-3.1,3-5.8,5.2-8.2c2.2-2.3,4.9-4.2,7.9-5.6c3.1-1.4,6.4-2.1,10-2.1c3.7,0,7,0.7,10,2.1
		c3,1.4,5.7,3.3,7.8,5.6c2.2,2.4,3.9,5.1,5.1,8.2c1.2,3.1,1.8,6.3,1.8,9.8c0,0.5,0,1,0,1.5c0,0.5,0,0.9-0.1,1.1h-42.9
		c0.2,2.7,0.8,5.2,1.9,7.4c1.1,2.3,2.4,4.2,4.1,5.9c1.7,1.7,3.6,3,5.7,3.9c2.1,0.9,4.4,1.4,6.9,1.4c1.6,0,3.2-0.2,4.8-0.7
		c1.6-0.4,3.1-1.1,4.4-1.8s2.6-1.7,3.7-2.8c1.1-1.1,1.9-2.4,2.5-3.7l5.7,1.5c-0.8,1.9-1.9,3.5-3.3,5c-1.4,1.5-3,2.8-4.9,3.9
		c-1.9,1.1-3.9,2-6.1,2.6C128,351.9,125.6,352.2,123.2,352.2z M141.6,323.6c-0.2-2.7-0.8-5.1-1.9-7.4s-2.4-4.1-4-5.7
		c-1.6-1.6-3.5-2.8-5.7-3.7c-2.1-0.9-4.4-1.3-6.9-1.3c-2.4,0-4.7,0.4-6.9,1.3c-2.2,0.9-4.1,2.1-5.7,3.7c-1.6,1.6-2.9,3.5-3.9,5.8
		c-1,2.2-1.6,4.7-1.8,7.3H141.6z"/>
	<path d="M182.5,352.2c-4,0-7.6-1-10.9-3c-3.3-2-5.9-4.5-7.7-7.7v9.7H158v-70.1h6.5v30.6c2.2-3.4,4.9-6.1,8.1-8.2
		c3.1-2.1,6.8-3.1,11-3.1c3.5,0,6.7,0.7,9.5,2.2c2.8,1.5,5.2,3.4,7.1,5.9c2,2.5,3.5,5.3,4.5,8.4c1.1,3.1,1.6,6.3,1.6,9.6
		c0,3.5-0.6,6.9-1.8,10c-1.2,3.1-2.9,5.9-5,8.2c-2.1,2.3-4.6,4.2-7.5,5.6C188.9,351.5,185.8,352.2,182.5,352.2z M180.9,346.5
		c2.8,0,5.3-0.6,7.5-1.7c2.3-1.1,4.2-2.6,5.9-4.5c1.6-1.9,2.9-4,3.8-6.4c0.9-2.4,1.4-4.9,1.4-7.4c0-2.6-0.4-5.2-1.3-7.6
		c-0.9-2.4-2.1-4.6-3.7-6.5c-1.6-1.9-3.5-3.4-5.7-4.5c-2.2-1.1-4.6-1.7-7.3-1.7c-2,0-3.8,0.3-5.6,1c-1.7,0.7-3.3,1.6-4.8,2.7
		c-1.5,1.2-2.8,2.5-3.9,4c-1.2,1.5-2.1,3.1-2.9,4.8v15.6c0.3,1.7,0.9,3.3,2.1,4.9c1.1,1.5,2.5,2.8,4,3.9c1.6,1.1,3.3,2,5.1,2.6
		C177.5,346.2,179.3,346.5,180.9,346.5z"/>
	<path d="M217.2,351.3v-68.2h30.2c3.1,0,6,0.7,8.7,2c2.7,1.3,4.9,3,6.9,5.2c1.9,2.1,3.4,4.6,4.5,7.3c1.1,2.7,1.6,5.5,1.6,8.2
		c0,4.4-1.1,8.4-3.3,12.1c-2.2,3.6-5.2,6.2-9,7.8l15.6,25.7h-14.9l-13.9-22.9h-13.1v22.9H217.2z M230.4,316.8h16.6
		c1.2,0,2.4-0.3,3.4-0.9c1.1-0.6,2-1.4,2.7-2.4c0.8-1,1.4-2.2,1.8-3.5c0.4-1.3,0.7-2.8,0.7-4.3c0-1.6-0.3-3.1-0.8-4.4
		c-0.5-1.3-1.2-2.5-2.1-3.5c-0.9-1-1.9-1.8-3-2.3c-1.1-0.5-2.3-0.8-3.4-0.8h-16V316.8z"/>
	<path d="M331,294.7h-21.8v56.6h-13.2v-56.6h-21.8v-11.6H331V294.7z"/>
	<path d="M332.2,316.7c0-4.2,0.8-8.3,2.3-12.3c1.5-4.1,3.7-7.7,6.6-10.9c2.9-3.2,6.4-5.8,10.6-7.8c4.2-2,8.9-3,14.2-3
		c6.3,0,11.7,1.4,16.3,4.1c4.6,2.8,8,6.3,10.2,10.8l-10.2,7c-0.9-1.9-2-3.5-3.3-4.9c-1.3-1.3-2.7-2.4-4.1-3.1
		c-1.5-0.8-3-1.3-4.6-1.7c-1.6-0.4-3.2-0.5-4.7-0.5c-3.3,0-6.2,0.7-8.7,2c-2.5,1.3-4.5,3.1-6.2,5.2c-1.6,2.1-2.9,4.6-3.7,7.3
		c-0.8,2.7-1.3,5.4-1.3,8.1c0,3,0.5,5.9,1.4,8.7c1,2.8,2.3,5.2,4.1,7.4c1.8,2.1,3.9,3.8,6.3,5.1c2.5,1.3,5.2,1.9,8.1,1.9
		c1.5,0,3.1-0.2,4.8-0.6c1.7-0.4,3.3-1,4.8-1.8c1.5-0.8,2.9-1.9,4.2-3.2c1.3-1.3,2.3-2.9,3.1-4.8l10.9,6.2c-1.1,2.6-2.6,4.8-4.7,6.8
		c-2,2-4.3,3.6-6.8,4.9c-2.5,1.3-5.2,2.4-8.1,3.1s-5.7,1.1-8.5,1.1c-4.9,0-9.3-1-13.4-3.1c-4-2-7.5-4.7-10.4-8
		c-2.9-3.3-5.2-7-6.8-11.2C333,325.3,332.2,321,332.2,316.7z"/>
</g>
<g>
	<path d="M10.2,368.7h1.5l2.3,5.8l2.3-5.8h1.5l-2.8,6.9l3.1,7.3l5.9-14.4h1.7l-6.9,16.2h-1.4l-3.4-8l-3.4,8H9.2l-6.9-16.2H4
		l5.9,14.4l3.1-7.3L10.2,368.7z"/>
	<path d="M33.5,385c-0.9,0-1.7-0.2-2.4-0.5c-0.7-0.3-1.4-0.8-1.9-1.4c-0.5-0.6-0.9-1.2-1.2-2c-0.3-0.7-0.4-1.5-0.4-2.4
		c0-0.8,0.1-1.6,0.4-2.4c0.3-0.7,0.7-1.4,1.2-1.9c0.5-0.6,1.2-1,1.9-1.3c0.7-0.3,1.5-0.5,2.4-0.5c0.9,0,1.7,0.2,2.4,0.5
		c0.7,0.3,1.3,0.8,1.9,1.3s0.9,1.2,1.2,1.9c0.3,0.7,0.4,1.5,0.4,2.3c0,0.1,0,0.2,0,0.4s0,0.2,0,0.3H29.2c0,0.6,0.2,1.2,0.4,1.8
		c0.3,0.5,0.6,1,1,1.4c0.4,0.4,0.9,0.7,1.4,0.9c0.5,0.2,1.1,0.3,1.6,0.3c0.4,0,0.8-0.1,1.1-0.2s0.7-0.3,1.1-0.4
		c0.3-0.2,0.6-0.4,0.9-0.7c0.3-0.3,0.5-0.6,0.6-0.9l1.4,0.4c-0.2,0.4-0.4,0.8-0.8,1.2c-0.3,0.4-0.7,0.7-1.2,0.9
		c-0.4,0.3-0.9,0.5-1.5,0.6C34.6,385,34.1,385,33.5,385z M37.9,378.2c0-0.6-0.2-1.2-0.4-1.8c-0.3-0.5-0.6-1-1-1.4
		c-0.4-0.4-0.8-0.7-1.4-0.9s-1.1-0.3-1.6-0.3c-0.6,0-1.1,0.1-1.6,0.3s-1,0.5-1.4,0.9c-0.4,0.4-0.7,0.8-0.9,1.4
		c-0.2,0.5-0.4,1.1-0.4,1.7H37.9z"/>
	<path d="M49.8,385c-0.9,0-1.8-0.2-2.6-0.7s-1.4-1.1-1.8-1.8v2.3h-1.4v-16.7h1.6v7.3c0.5-0.8,1.2-1.5,1.9-2c0.7-0.5,1.6-0.7,2.6-0.7
		c0.8,0,1.6,0.2,2.3,0.5c0.7,0.4,1.2,0.8,1.7,1.4s0.8,1.3,1.1,2c0.3,0.7,0.4,1.5,0.4,2.3c0,0.8-0.1,1.6-0.4,2.4
		c-0.3,0.7-0.7,1.4-1.2,2s-1.1,1-1.8,1.3C51.3,384.9,50.6,385,49.8,385z M49.4,383.7c0.7,0,1.3-0.1,1.8-0.4c0.5-0.3,1-0.6,1.4-1.1
		c0.4-0.4,0.7-1,0.9-1.5c0.2-0.6,0.3-1.2,0.3-1.8c0-0.6-0.1-1.2-0.3-1.8s-0.5-1.1-0.9-1.5c-0.4-0.4-0.8-0.8-1.3-1.1
		s-1.1-0.4-1.7-0.4c-0.5,0-0.9,0.1-1.3,0.2c-0.4,0.2-0.8,0.4-1.1,0.7c-0.4,0.3-0.7,0.6-0.9,0.9c-0.3,0.4-0.5,0.7-0.7,1.1v3.7
		c0.1,0.4,0.2,0.8,0.5,1.2s0.6,0.7,1,0.9c0.4,0.3,0.8,0.5,1.2,0.6C48.6,383.6,49,383.7,49.4,383.7z"/>
	<path d="M68.5,384.8v-16.2h6.9c0.7,0,1.3,0.1,1.9,0.4c0.6,0.3,1.1,0.7,1.5,1.2c0.4,0.5,0.8,1,1,1.6c0.2,0.6,0.4,1.2,0.4,1.9
		c0,0.6-0.1,1.2-0.3,1.7c-0.2,0.5-0.4,1-0.7,1.5c-0.3,0.4-0.7,0.8-1.1,1.1c-0.4,0.3-0.9,0.5-1.5,0.6l4,6.3h-1.8l-3.8-6h-4.8v6H68.5z
		 M70.1,377.4h5.3c0.5,0,0.9-0.1,1.3-0.3c0.4-0.2,0.7-0.5,1-0.8c0.3-0.4,0.5-0.7,0.6-1.2s0.2-0.9,0.2-1.4s-0.1-1-0.3-1.4
		c-0.2-0.5-0.4-0.8-0.7-1.2c-0.3-0.3-0.6-0.6-1.1-0.8c-0.4-0.2-0.8-0.3-1.3-0.3h-5.2V377.4z"/>
	<path d="M90.1,385c-0.9,0-1.7-0.2-2.4-0.5c-0.7-0.3-1.4-0.8-1.9-1.4c-0.5-0.6-0.9-1.2-1.2-2c-0.3-0.7-0.4-1.5-0.4-2.4
		c0-0.8,0.1-1.6,0.4-2.4c0.3-0.7,0.7-1.4,1.2-1.9c0.5-0.6,1.2-1,1.9-1.3c0.7-0.3,1.5-0.5,2.4-0.5c0.9,0,1.7,0.2,2.4,0.5
		c0.7,0.3,1.3,0.8,1.9,1.3s0.9,1.2,1.2,1.9c0.3,0.7,0.4,1.5,0.4,2.3c0,0.1,0,0.2,0,0.4s0,0.2,0,0.3H85.7c0,0.6,0.2,1.2,0.4,1.8
		c0.3,0.5,0.6,1,1,1.4c0.4,0.4,0.9,0.7,1.4,0.9c0.5,0.2,1.1,0.3,1.6,0.3c0.4,0,0.8-0.1,1.1-0.2s0.7-0.3,1.1-0.4
		c0.3-0.2,0.6-0.4,0.9-0.7c0.3-0.3,0.5-0.6,0.6-0.9l1.4,0.4c-0.2,0.4-0.4,0.8-0.8,1.2c-0.3,0.4-0.7,0.7-1.2,0.9
		c-0.4,0.3-0.9,0.5-1.5,0.6C91.2,385,90.7,385,90.1,385z M94.5,378.2c0-0.6-0.2-1.2-0.4-1.8c-0.3-0.5-0.6-1-1-1.4
		c-0.4-0.4-0.8-0.7-1.4-0.9s-1.1-0.3-1.6-0.3c-0.6,0-1.1,0.1-1.6,0.3s-1,0.5-1.4,0.9c-0.4,0.4-0.7,0.8-0.9,1.4
		c-0.2,0.5-0.4,1.1-0.4,1.7H94.5z"/>
	<path d="M103.5,385c-0.6,0-1.1-0.1-1.6-0.3c-0.5-0.2-0.9-0.5-1.3-0.8c-0.4-0.3-0.6-0.7-0.8-1.2c-0.2-0.4-0.3-0.9-0.3-1.5
		s0.1-1,0.4-1.4c0.2-0.4,0.6-0.8,1-1.1c0.4-0.3,1-0.6,1.6-0.7c0.6-0.2,1.3-0.3,2-0.3c0.6,0,1.2,0.1,1.9,0.2c0.6,0.1,1.2,0.3,1.7,0.5
		v-1.1c0-1.1-0.3-1.9-0.9-2.5c-0.6-0.6-1.4-0.9-2.5-0.9c-0.6,0-1.2,0.1-1.9,0.4s-1.3,0.6-1.9,1.1l-0.5-1c1.5-1,3-1.6,4.5-1.6
		c1.5,0,2.7,0.4,3.5,1.3c0.9,0.8,1.3,2,1.3,3.5v5.4c0,0.4,0.2,0.6,0.6,0.6v1.4c-0.3,0-0.5,0.1-0.6,0.1c-0.4,0-0.7-0.1-0.9-0.3
		c-0.2-0.2-0.3-0.5-0.4-0.8l0-0.9c-0.5,0.7-1.2,1.3-2.1,1.6C105.4,384.8,104.5,385,103.5,385z M103.9,383.8c0.8,0,1.6-0.2,2.2-0.5
		c0.7-0.3,1.2-0.7,1.5-1.2c0.1-0.1,0.2-0.3,0.3-0.4c0.1-0.2,0.1-0.3,0.1-0.4v-1.9c-0.5-0.2-1.1-0.4-1.6-0.5
		c-0.6-0.1-1.1-0.2-1.7-0.2c-1.1,0-2,0.2-2.7,0.7c-0.7,0.5-1,1.1-1,1.8c0,0.4,0.1,0.7,0.2,1s0.3,0.6,0.6,0.8
		c0.3,0.2,0.6,0.4,0.9,0.6C103.1,383.8,103.5,383.8,103.9,383.8z"/>
	<path d="M115.2,368.1h1.6v14c0,0.4,0.1,0.8,0.4,1c0.2,0.3,0.6,0.4,1,0.4c0.2,0,0.4,0,0.6-0.1c0.2,0,0.4-0.1,0.6-0.2l0.3,1.3
		c-0.3,0.1-0.6,0.2-1.1,0.3c-0.4,0.1-0.8,0.1-1.1,0.1c-0.7,0-1.3-0.2-1.7-0.6c-0.4-0.4-0.6-1-0.6-1.7V368.1z"/>
	<path d="M142,370h-5.8v14.8h-1.6V370h-5.8v-1.4H142V370z"/>
	<path d="M146.3,370.4v-2.3h1.6v2.3H146.3z M146.3,384.8v-11.9h1.6v11.9H146.3z"/>
	<path d="M171.1,384.8h-1.6v-6.7c0-1.4-0.2-2.4-0.7-3.1c-0.4-0.7-1.1-1-2-1c-0.5,0-0.9,0.1-1.3,0.3c-0.4,0.2-0.8,0.4-1.1,0.7
		c-0.3,0.3-0.6,0.7-0.9,1.1c-0.3,0.4-0.5,0.9-0.6,1.4v7.3h-1.6v-6.7c0-1.4-0.2-2.4-0.6-3.1c-0.4-0.6-1.1-1-2-1
		c-0.9,0-1.7,0.3-2.4,0.9c-0.7,0.6-1.2,1.5-1.5,2.5v7.3h-1.6v-11.9h1.4v2.7c0.5-0.9,1.1-1.6,1.9-2.1c0.8-0.5,1.7-0.8,2.6-0.8
		c1,0,1.8,0.3,2.4,0.8c0.6,0.6,1,1.3,1.1,2.2c1.1-2,2.6-3.1,4.6-3.1c0.7,0,1.2,0.1,1.7,0.4s0.8,0.6,1.1,1c0.3,0.5,0.5,1,0.6,1.6
		c0.1,0.6,0.2,1.3,0.2,2.1V384.8z"/>
	<path d="M181.7,385c-0.9,0-1.7-0.2-2.4-0.5c-0.7-0.3-1.4-0.8-1.9-1.4c-0.5-0.6-0.9-1.2-1.2-2c-0.3-0.7-0.4-1.5-0.4-2.4
		c0-0.8,0.1-1.6,0.4-2.4c0.3-0.7,0.7-1.4,1.2-1.9c0.5-0.6,1.2-1,1.9-1.3c0.7-0.3,1.5-0.5,2.4-0.5c0.9,0,1.7,0.2,2.4,0.5
		c0.7,0.3,1.3,0.8,1.9,1.3s0.9,1.2,1.2,1.9c0.3,0.7,0.4,1.5,0.4,2.3c0,0.1,0,0.2,0,0.4s0,0.2,0,0.3h-10.2c0,0.6,0.2,1.2,0.4,1.8
		c0.3,0.5,0.6,1,1,1.4c0.4,0.4,0.9,0.7,1.4,0.9c0.5,0.2,1.1,0.3,1.6,0.3c0.4,0,0.8-0.1,1.1-0.2s0.7-0.3,1.1-0.4
		c0.3-0.2,0.6-0.4,0.9-0.7c0.3-0.3,0.5-0.6,0.6-0.9l1.4,0.4c-0.2,0.4-0.4,0.8-0.8,1.2c-0.3,0.4-0.7,0.7-1.2,0.9
		c-0.4,0.3-0.9,0.5-1.5,0.6C182.9,385,182.3,385,181.7,385z M186.1,378.2c0-0.6-0.2-1.2-0.4-1.8c-0.3-0.5-0.6-1-1-1.4
		c-0.4-0.4-0.8-0.7-1.4-0.9s-1.1-0.3-1.6-0.3c-0.6,0-1.1,0.1-1.6,0.3s-1,0.5-1.4,0.9c-0.4,0.4-0.7,0.8-0.9,1.4
		c-0.2,0.5-0.4,1.1-0.4,1.7H186.1z"/>
	<path d="M199.4,376.6c0-1,0.2-1.9,0.5-2.9c0.3-1,0.8-1.8,1.5-2.6c0.7-0.8,1.5-1.4,2.4-1.9c1-0.5,2.1-0.7,3.3-0.7
		c1.4,0,2.7,0.3,3.7,1c1,0.7,1.8,1.5,2.3,2.6l-1.3,0.8c-0.3-0.5-0.6-1-0.9-1.3c-0.4-0.4-0.8-0.7-1.2-0.9c-0.4-0.2-0.9-0.4-1.3-0.5
		c-0.5-0.1-0.9-0.1-1.4-0.1c-1,0-1.8,0.2-2.6,0.6c-0.7,0.4-1.4,0.9-1.9,1.6c-0.5,0.6-0.9,1.4-1.2,2.2c-0.3,0.8-0.4,1.6-0.4,2.4
		c0,0.9,0.2,1.8,0.5,2.6c0.3,0.8,0.7,1.6,1.3,2.2c0.5,0.6,1.2,1.1,1.9,1.5c0.7,0.4,1.5,0.6,2.4,0.6c0.5,0,0.9-0.1,1.4-0.2
		s0.9-0.3,1.4-0.5c0.4-0.3,0.9-0.6,1.2-0.9c0.4-0.4,0.7-0.8,1-1.4l1.3,0.7c-0.3,0.6-0.6,1.1-1.1,1.6c-0.5,0.5-1,0.9-1.6,1.2
		s-1.2,0.6-1.8,0.7s-1.3,0.3-1.9,0.3c-1.1,0-2.1-0.2-3.1-0.7s-1.7-1.1-2.4-1.9c-0.7-0.8-1.2-1.7-1.6-2.7S199.4,377.6,199.4,376.6z"
		/>
	<path d="M223.1,385c-0.9,0-1.7-0.2-2.4-0.5c-0.7-0.3-1.3-0.8-1.9-1.3c-0.5-0.6-0.9-1.2-1.2-2c-0.3-0.7-0.4-1.5-0.4-2.4
		c0-0.8,0.1-1.6,0.4-2.4c0.3-0.7,0.7-1.4,1.2-2s1.1-1,1.9-1.3c0.7-0.3,1.5-0.5,2.4-0.5c0.9,0,1.6,0.2,2.4,0.5
		c0.7,0.3,1.3,0.8,1.9,1.3s0.9,1.2,1.2,2c0.3,0.7,0.4,1.5,0.4,2.4c0,0.8-0.1,1.6-0.4,2.4c-0.3,0.7-0.7,1.4-1.2,2s-1.2,1-1.9,1.3
		C224.7,384.9,223.9,385,223.1,385z M218.7,378.9c0,0.7,0.1,1.3,0.3,1.9c0.2,0.6,0.5,1.1,0.9,1.5c0.4,0.4,0.8,0.8,1.4,1
		c0.5,0.2,1.1,0.4,1.7,0.4c0.6,0,1.2-0.1,1.7-0.4s1-0.6,1.4-1c0.4-0.4,0.7-0.9,0.9-1.5c0.2-0.6,0.3-1.2,0.3-1.9
		c0-0.7-0.1-1.3-0.3-1.9s-0.5-1.1-0.9-1.5s-0.9-0.8-1.4-1c-0.5-0.3-1.1-0.4-1.7-0.4c-0.6,0-1.2,0.1-1.7,0.4c-0.5,0.3-1,0.6-1.4,1
		s-0.7,1-0.9,1.5C218.9,377.6,218.7,378.2,218.7,378.9z"/>
	<path d="M251.5,384.8h-1.6v-6.7c0-1.4-0.2-2.4-0.7-3.1c-0.4-0.7-1.1-1-2-1c-0.5,0-0.9,0.1-1.3,0.3s-0.8,0.4-1.1,0.7
		c-0.3,0.3-0.6,0.7-0.9,1.1c-0.3,0.4-0.5,0.9-0.6,1.4v7.3h-1.6v-6.7c0-1.4-0.2-2.4-0.6-3.1c-0.4-0.6-1.1-1-2-1
		c-0.9,0-1.7,0.3-2.4,0.9c-0.7,0.6-1.2,1.5-1.5,2.5v7.3h-1.6v-11.9h1.4v2.7c0.5-0.9,1.1-1.6,1.9-2.1c0.8-0.5,1.7-0.8,2.6-0.8
		c1,0,1.8,0.3,2.4,0.8s1,1.3,1.1,2.2c1.1-2,2.6-3.1,4.6-3.1c0.7,0,1.2,0.1,1.7,0.4c0.5,0.2,0.8,0.6,1.1,1c0.3,0.5,0.5,1,0.6,1.6
		s0.2,1.3,0.2,2.1V384.8z"/>
	<path d="M274.7,384.8h-1.6v-6.7c0-1.4-0.2-2.4-0.7-3.1c-0.4-0.7-1.1-1-2-1c-0.5,0-0.9,0.1-1.3,0.3s-0.8,0.4-1.1,0.7
		c-0.3,0.3-0.6,0.7-0.9,1.1c-0.3,0.4-0.5,0.9-0.6,1.4v7.3H265v-6.7c0-1.4-0.2-2.4-0.6-3.1c-0.4-0.6-1.1-1-2-1
		c-0.9,0-1.7,0.3-2.4,0.9c-0.7,0.6-1.2,1.5-1.5,2.5v7.3h-1.6v-11.9h1.4v2.7c0.5-0.9,1.1-1.6,1.9-2.1c0.8-0.5,1.7-0.8,2.6-0.8
		c1,0,1.8,0.3,2.4,0.8s1,1.3,1.1,2.2c1.1-2,2.6-3.1,4.6-3.1c0.7,0,1.2,0.1,1.7,0.4c0.5,0.2,0.8,0.6,1.1,1c0.3,0.5,0.5,1,0.6,1.6
		s0.2,1.3,0.2,2.1V384.8z"/>
	<path d="M283.8,385c-1.3,0-2.3-0.4-2.9-1.3c-0.6-0.9-0.9-2.1-0.9-3.9v-7h1.6v6.7c0,2.7,0.9,4.1,2.8,4.1c0.5,0,0.9-0.1,1.4-0.2
		c0.4-0.2,0.8-0.4,1.2-0.7s0.7-0.6,1-1c0.3-0.4,0.5-0.8,0.7-1.3v-7.5h1.6v9.9c0,0.4,0.2,0.6,0.5,0.6v1.4c-0.2,0-0.3,0-0.4,0
		s-0.2,0-0.2,0c-0.4,0-0.7-0.1-0.9-0.4s-0.3-0.6-0.3-1v-1.4c-0.5,0.9-1.2,1.7-2.1,2.2C285.8,384.8,284.8,385,283.8,385z"/>
	<path d="M305.9,384.8h-1.6v-6.7c0-1.4-0.2-2.4-0.6-3.1c-0.4-0.6-1.1-1-1.9-1c-0.5,0-0.9,0.1-1.4,0.3c-0.5,0.2-0.9,0.4-1.3,0.7
		c-0.4,0.3-0.7,0.7-1,1.1c-0.3,0.4-0.5,0.9-0.7,1.4v7.3h-1.6v-11.9h1.4v2.7c0.5-0.9,1.2-1.6,2.1-2.1c0.9-0.5,1.9-0.8,3-0.8
		c0.7,0,1.2,0.1,1.7,0.4c0.5,0.2,0.8,0.6,1.1,1c0.3,0.4,0.5,1,0.6,1.6s0.2,1.3,0.2,2.1V384.8z"/>
	<path d="M311.3,370.4v-2.3h1.6v2.3H311.3z M311.3,384.8v-11.9h1.6v11.9H311.3z"/>
	<path d="M317.7,378.8c0-0.8,0.1-1.6,0.4-2.4c0.3-0.7,0.7-1.4,1.2-2c0.5-0.6,1.2-1,1.9-1.3c0.7-0.3,1.5-0.5,2.4-0.5
		c1.1,0,2.1,0.3,3,0.8c0.8,0.5,1.5,1.2,1.9,2.1L327,376c-0.3-0.6-0.8-1.1-1.4-1.4c-0.6-0.3-1.3-0.5-2-0.5c-0.6,0-1.2,0.1-1.7,0.4
		s-1,0.6-1.4,1c-0.4,0.4-0.7,0.9-0.9,1.5c-0.2,0.6-0.3,1.2-0.3,1.9c0,0.7,0.1,1.3,0.3,1.9s0.5,1.1,0.9,1.5c0.4,0.4,0.9,0.8,1.4,1
		s1.1,0.4,1.7,0.4c0.4,0,0.8-0.1,1.1-0.2c0.4-0.1,0.7-0.3,1-0.4c0.3-0.2,0.6-0.4,0.8-0.7c0.2-0.2,0.4-0.5,0.5-0.8l1.5,0.5
		c-0.2,0.4-0.4,0.8-0.7,1.2c-0.3,0.4-0.7,0.7-1.1,0.9c-0.4,0.3-0.9,0.5-1.4,0.6c-0.5,0.1-1.1,0.2-1.6,0.2c-0.9,0-1.7-0.2-2.4-0.5
		c-0.7-0.3-1.4-0.8-1.9-1.4c-0.5-0.6-1-1.2-1.2-2C317.8,380.5,317.7,379.7,317.7,378.8z"/>
	<path d="M336.2,385c-0.6,0-1.1-0.1-1.6-0.3c-0.5-0.2-0.9-0.5-1.3-0.8c-0.4-0.3-0.6-0.7-0.8-1.2c-0.2-0.4-0.3-0.9-0.3-1.5
		s0.1-1,0.4-1.4s0.6-0.8,1-1.1s1-0.6,1.6-0.7c0.6-0.2,1.3-0.3,2-0.3c0.6,0,1.2,0.1,1.9,0.2c0.6,0.1,1.2,0.3,1.7,0.5v-1.1
		c0-1.1-0.3-1.9-0.9-2.5c-0.6-0.6-1.4-0.9-2.5-0.9c-0.6,0-1.2,0.1-1.9,0.4s-1.3,0.6-1.9,1.1l-0.5-1c1.5-1,3-1.6,4.5-1.6
		c1.5,0,2.7,0.4,3.5,1.3s1.3,2,1.3,3.5v5.4c0,0.4,0.2,0.6,0.6,0.6v1.4c-0.3,0-0.5,0.1-0.6,0.1c-0.4,0-0.7-0.1-0.9-0.3
		c-0.2-0.2-0.3-0.5-0.4-0.8l0-0.9c-0.5,0.7-1.2,1.3-2.1,1.6C338.1,384.8,337.2,385,336.2,385z M336.6,383.8c0.8,0,1.6-0.2,2.2-0.5
		c0.7-0.3,1.2-0.7,1.5-1.2c0.1-0.1,0.2-0.3,0.3-0.4c0.1-0.2,0.1-0.3,0.1-0.4v-1.9c-0.5-0.2-1.1-0.4-1.6-0.5s-1.1-0.2-1.7-0.2
		c-1.1,0-2,0.2-2.7,0.7c-0.7,0.5-1,1.1-1,1.8c0,0.4,0.1,0.7,0.2,1c0.1,0.3,0.3,0.6,0.6,0.8s0.6,0.4,0.9,0.6
		C335.8,383.8,336.2,383.8,336.6,383.8z"/>
	<path d="M353.4,384.2c-0.1,0-0.2,0.1-0.4,0.2c-0.2,0.1-0.4,0.2-0.6,0.2c-0.2,0.1-0.5,0.1-0.8,0.2s-0.6,0.1-0.9,0.1
		c-0.3,0-0.7,0-1-0.1c-0.3-0.1-0.6-0.2-0.8-0.4c-0.2-0.2-0.4-0.4-0.5-0.7c-0.1-0.3-0.2-0.6-0.2-1v-8.5h-1.6v-1.2h1.6v-4h1.6v4h2.7
		v1.2h-2.7v8.1c0,0.4,0.2,0.8,0.5,1s0.6,0.3,1,0.3c0.4,0,0.8-0.1,1.2-0.2c0.3-0.1,0.5-0.2,0.6-0.3L353.4,384.2z"/>
	<path d="M357.5,370.4v-2.3h1.6v2.3H357.5z M357.5,384.8v-11.9h1.6v11.9H357.5z"/>
	<path d="M369.8,385c-0.9,0-1.7-0.2-2.4-0.5c-0.7-0.3-1.3-0.8-1.9-1.3c-0.5-0.6-0.9-1.2-1.2-2c-0.3-0.7-0.4-1.5-0.4-2.4
		c0-0.8,0.1-1.6,0.4-2.4c0.3-0.7,0.7-1.4,1.2-2s1.1-1,1.9-1.3c0.7-0.3,1.5-0.5,2.4-0.5c0.9,0,1.6,0.2,2.4,0.5
		c0.7,0.3,1.3,0.8,1.9,1.3s0.9,1.2,1.2,2c0.3,0.7,0.4,1.5,0.4,2.4c0,0.8-0.1,1.6-0.4,2.4c-0.3,0.7-0.7,1.4-1.2,2s-1.2,1-1.9,1.3
		C371.4,384.9,370.6,385,369.8,385z M365.4,378.9c0,0.7,0.1,1.3,0.3,1.9c0.2,0.6,0.5,1.1,0.9,1.5c0.4,0.4,0.8,0.8,1.4,1
		c0.5,0.2,1.1,0.4,1.7,0.4c0.6,0,1.2-0.1,1.7-0.4s1-0.6,1.4-1c0.4-0.4,0.7-0.9,0.9-1.5c0.2-0.6,0.3-1.2,0.3-1.9
		c0-0.7-0.1-1.3-0.3-1.9s-0.5-1.1-0.9-1.5s-0.9-0.8-1.4-1c-0.5-0.3-1.1-0.4-1.7-0.4c-0.6,0-1.2,0.1-1.7,0.4c-0.5,0.3-1,0.6-1.4,1
		s-0.7,1-0.9,1.5C365.5,377.6,365.4,378.2,365.4,378.9z"/>
	<path d="M390.5,384.8h-1.6v-6.7c0-1.4-0.2-2.4-0.6-3.1c-0.4-0.6-1.1-1-1.9-1c-0.5,0-0.9,0.1-1.4,0.3c-0.5,0.2-0.9,0.4-1.3,0.7
		c-0.4,0.3-0.7,0.7-1,1.1c-0.3,0.4-0.5,0.9-0.7,1.4v7.3h-1.6v-11.9h1.4v2.7c0.5-0.9,1.2-1.6,2.1-2.1c0.9-0.5,1.9-0.8,3-0.8
		c0.7,0,1.2,0.1,1.7,0.4c0.5,0.2,0.8,0.6,1.1,1c0.3,0.4,0.5,1,0.6,1.6s0.2,1.3,0.2,2.1V384.8z"/>
</g>
</svg>
